<svg xmlns="http://www.w3.org/2000/svg" viewBox="0 0 120 24" fill="currentColor">
  <path d="M12 3.5h-1.5v8H6.2V3.5H4.7V15h1.5v-4.3h4.3V15h1.5V3.5z"/>
  <path d="M17.5 3.5H14V15h1.5v-4.3h2c2.3 0 3.5-1.3 3.5-3.6s-1.2-3.6-3.5-3.6zm0 6.5h-2V5.7h2c1.3 0 2 .7 2 2.1s-.7 2.2-2 2.2zM31 3.5h-1.5L27 10.9l-2.5-7.4H23l3.3 9.3c.3.8.7 1.5 1 1.5.3 0 .7-.7 1-1.5l3.3-9.3H31zM36.5 3.5H35V15h1.5V3.5zM41 3.5h-1.5V15H41V3.5zM49.5 3.5H48v8h-4.3V3.5h-1.5V15h1.5v-4.3h4.3V15h1.5V3.5zM55 3.5h-1.5v10h5.5v1H55v1.5h7V13h-5.5v-1h5.5V3.5H55zm0 1.5h5.5v5.5H55V5z"/>
</svg>